<svg width="180" height="180" viewBox="0 0 180 180" fill="none" xmlns="http://www.w3.org/2000/svg">
<circle cx="90" cy="90" r="90" fill="white"/>
<path d="M53.4345 125.589L38.0393 75.1612L37.6437 75.1607C37.7006 76.3619 37.7858 78.1784 37.8995 80.6102C38.0425 83.0128 38.1706 85.5765 38.2838 88.3012C38.397 91.026 38.452 93.487 38.4488 95.6843L38.4052 125.567L26.2324 125.549L26.326 61.3014L44.8709 61.3284L60.0044 110.481L60.2681 110.482L76.4676 61.3745L95.0125 61.4015L94.9188 125.649L82.2187 125.631L82.263 95.2208C82.2659 93.1993 82.2986 90.8703 82.3611 88.2337C82.4528 85.5971 82.559 83.0923 82.6796 80.7195C82.8003 78.3173 82.8908 76.5157 82.9512 75.3146L82.5557 75.314L65.915 125.607L53.4345 125.589ZM161.634 61.4986L139.699 125.715L124.846 125.693L103.142 61.4133L116.897 61.4334L128.926 99.6834C129.131 100.328 129.466 101.545 129.932 103.332C130.398 105.091 130.864 106.966 131.33 108.959C131.825 110.923 132.16 112.549 132.334 113.839C132.511 112.55 132.821 110.924 133.264 108.962C133.735 107 134.192 105.14 134.634 103.383C135.105 101.597 135.444 100.367 135.65 99.6932L147.879 61.4785L161.634 61.4986Z" fill="#0F8F8D"/>
</svg>
